<svg version="1.1" xmlns="http://www.w3.org/2000/svg" viewBox="0 0 981.1461355525175 616.9786904724807" width="1962.292271105035" height="1233.9573809449614">
  <!-- svg-source:excalidraw -->
  
  <defs>
    <style class="style-fonts">
      @font-face {
        font-family: "Virgil";
        src: url("https://excalidraw.com/Virgil.woff2");
      }
      @font-face {
        font-family: "Cascadia";
        src: url("https://excalidraw.com/Cascadia.woff2");
      }
    </style>
    
  </defs>
  <rect x="0" y="0" width="981.1461355525175" height="616.9786904724807" fill="#ffffff"></rect><g stroke-linecap="round" transform="translate(377.84201111897755 443.1720702328522) rotate(0 45.57782514389919 36.717992268150965)"><path d="M91.16 36.72 C91.16 38.46, 91 40.22, 90.69 41.94 C90.38 43.67, 89.92 45.39, 89.31 47.06 C88.7 48.73, 87.94 50.39, 87.04 51.97 C86.14 53.56, 85.09 55.1, 83.92 56.57 C82.75 58.03, 81.44 59.45, 80.02 60.76 C78.61 62.08, 77.06 63.33, 75.42 64.47 C73.79 65.61, 72.04 66.67, 70.22 67.61 C68.4 68.55, 66.48 69.39, 64.51 70.12 C62.54 70.84, 60.49 71.46, 58.42 71.95 C56.34 72.44, 54.2 72.81, 52.06 73.06 C49.92 73.31, 47.74 73.44, 45.58 73.44 C43.42 73.44, 41.23 73.31, 39.09 73.06 C36.95 72.81, 34.81 72.44, 32.74 71.95 C30.66 71.46, 28.61 70.84, 26.64 70.12 C24.68 69.39, 22.76 68.55, 20.94 67.61 C19.12 66.67, 17.36 65.61, 15.73 64.47 C14.1 63.33, 12.55 62.08, 11.13 60.76 C9.72 59.45, 8.4 58.03, 7.24 56.57 C6.07 55.1, 5.02 53.56, 4.12 51.97 C3.22 50.39, 2.46 48.73, 1.85 47.06 C1.24 45.39, 0.77 43.67, 0.46 41.94 C0.16 40.22, 0 38.46, 0 36.72 C0 34.98, 0.16 33.22, 0.46 31.49 C0.77 29.77, 1.24 28.04, 1.85 26.37 C2.46 24.7, 3.22 23.05, 4.12 21.46 C5.02 19.88, 6.07 18.33, 7.24 16.87 C8.4 15.4, 9.72 13.99, 11.13 12.67 C12.55 11.36, 14.1 10.11, 15.73 8.97 C17.36 7.83, 19.12 6.77, 20.94 5.83 C22.76 4.89, 24.68 4.04, 26.64 3.32 C28.61 2.59, 30.66 1.98, 32.74 1.49 C34.81 1, 36.95 0.62, 39.09 0.37 C41.23 0.13, 43.42 0, 45.58 0 C47.74 0, 49.92 0.13, 52.06 0.37 C54.2 0.62, 56.34 1, 58.42 1.49 C60.49 1.98, 62.54 2.59, 64.51 3.32 C66.48 4.04, 68.4 4.89, 70.22 5.83 C72.04 6.77, 73.79 7.83, 75.42 8.97 C77.06 10.11, 78.61 11.36, 80.02 12.67 C81.44 13.99, 82.75 15.4, 83.92 16.87 C85.09 18.33, 86.14 19.88, 87.04 21.46 C87.94 23.05, 88.7 24.7, 89.31 26.37 C89.92 28.04, 90.38 29.77, 90.69 31.49 C91 33.22, 91.08 35.85, 91.16 36.72 C91.23 37.59, 91.23 35.85, 91.16 36.72" stroke="none" stroke-width="0" fill="#ffffff"></path><path d="M91.16 36.72 C91.16 38.46, 91 40.22, 90.69 41.94 C90.38 43.67, 89.92 45.39, 89.31 47.06 C88.7 48.73, 87.94 50.39, 87.04 51.97 C86.14 53.56, 85.09 55.1, 83.92 56.57 C82.75 58.03, 81.44 59.45, 80.02 60.76 C78.61 62.08, 77.06 63.33, 75.42 64.47 C73.79 65.61, 72.04 66.67, 70.22 67.61 C68.4 68.55, 66.48 69.39, 64.51 70.12 C62.54 70.84, 60.49 71.46, 58.42 71.95 C56.34 72.44, 54.2 72.81, 52.06 73.06 C49.92 73.31, 47.74 73.44, 45.58 73.44 C43.42 73.44, 41.23 73.31, 39.09 73.06 C36.95 72.81, 34.81 72.44, 32.74 71.95 C30.66 71.46, 28.61 70.84, 26.64 70.12 C24.68 69.39, 22.76 68.55, 20.94 67.61 C19.12 66.67, 17.36 65.61, 15.73 64.47 C14.1 63.33, 12.55 62.08, 11.13 60.76 C9.72 59.45, 8.4 58.03, 7.24 56.57 C6.07 55.1, 5.02 53.56, 4.12 51.97 C3.22 50.39, 2.46 48.73, 1.85 47.06 C1.24 45.39, 0.77 43.67, 0.46 41.94 C0.16 40.22, 0 38.46, 0 36.72 C0 34.98, 0.16 33.22, 0.46 31.49 C0.77 29.77, 1.24 28.04, 1.85 26.37 C2.46 24.7, 3.22 23.05, 4.12 21.46 C5.02 19.88, 6.07 18.33, 7.24 16.87 C8.4 15.4, 9.72 13.99, 11.13 12.67 C12.55 11.36, 14.1 10.11, 15.73 8.97 C17.36 7.83, 19.12 6.77, 20.94 5.83 C22.76 4.89, 24.68 4.04, 26.64 3.32 C28.61 2.59, 30.66 1.98, 32.74 1.49 C34.81 1, 36.95 0.62, 39.09 0.37 C41.23 0.13, 43.42 0, 45.58 0 C47.74 0, 49.92 0.13, 52.06 0.37 C54.2 0.62, 56.34 1, 58.42 1.49 C60.49 1.98, 62.54 2.59, 64.51 3.32 C66.48 4.04, 68.4 4.89, 70.22 5.83 C72.04 6.77, 73.79 7.83, 75.42 8.97 C77.06 10.11, 78.61 11.36, 80.02 12.67 C81.44 13.99, 82.75 15.4, 83.92 16.87 C85.09 18.33, 86.14 19.88, 87.04 21.46 C87.94 23.05, 88.7 24.7, 89.31 26.37 C89.92 28.04, 90.38 29.77, 90.69 31.49 C91 33.22, 91.08 35.85, 91.16 36.72 C91.23 37.59, 91.23 35.85, 91.16 36.72" stroke="#ffffff" stroke-width="4" fill="none"></path></g><g stroke-linecap="round" transform="translate(425.2356858702037 393.5539797126513) rotate(0 45.52486286368503 34.4557462990233)"><path d="M91.05 34.46 C91.05 36.09, 90.89 37.74, 90.59 39.36 C90.28 40.98, 89.81 42.59, 89.21 44.16 C88.6 45.73, 87.83 47.28, 86.94 48.77 C86.04 50.26, 84.99 51.71, 83.82 53.08 C82.66 54.46, 81.34 55.78, 79.93 57.02 C78.52 58.25, 76.97 59.43, 75.34 60.5 C73.71 61.57, 71.95 62.56, 70.14 63.44 C68.32 64.33, 66.4 65.12, 64.44 65.8 C62.47 66.48, 60.42 67.06, 58.35 67.52 C56.28 67.98, 54.14 68.33, 52 68.56 C49.87 68.79, 47.68 68.91, 45.52 68.91 C43.37 68.91, 41.18 68.79, 39.05 68.56 C36.91 68.33, 34.77 67.98, 32.7 67.52 C30.63 67.06, 28.58 66.48, 26.61 65.8 C24.65 65.12, 22.73 64.33, 20.91 63.44 C19.1 62.56, 17.34 61.57, 15.71 60.5 C14.08 59.43, 12.53 58.25, 11.12 57.02 C9.71 55.78, 8.39 54.46, 7.23 53.08 C6.06 51.71, 5.01 50.26, 4.11 48.77 C3.22 47.28, 2.45 45.73, 1.84 44.16 C1.24 42.59, 0.77 40.98, 0.46 39.36 C0.16 37.74, 0 36.09, 0 34.46 C0 32.82, 0.16 31.17, 0.46 29.55 C0.77 27.93, 1.24 26.32, 1.84 24.75 C2.45 23.18, 3.22 21.63, 4.11 20.14 C5.01 18.66, 6.06 17.2, 7.23 15.83 C8.39 14.45, 9.71 13.13, 11.12 11.89 C12.53 10.66, 14.08 9.49, 15.71 8.42 C17.34 7.35, 19.1 6.35, 20.91 5.47 C22.73 4.59, 24.65 3.79, 26.61 3.11 C28.58 2.43, 30.63 1.86, 32.7 1.4 C34.77 0.94, 36.91 0.58, 39.05 0.35 C41.18 0.12, 43.37 0, 45.52 0 C47.68 0, 49.87 0.12, 52 0.35 C54.14 0.58, 56.28 0.94, 58.35 1.4 C60.42 1.86, 62.47 2.43, 64.44 3.11 C66.4 3.79, 68.32 4.59, 70.14 5.47 C71.95 6.35, 73.71 7.35, 75.34 8.42 C76.97 9.49, 78.52 10.66, 79.93 11.89 C81.34 13.13, 82.66 14.45, 83.82 15.83 C84.99 17.2, 86.04 18.66, 86.94 20.14 C87.83 21.63, 88.6 23.18, 89.21 24.75 C89.81 26.32, 90.28 27.93, 90.59 29.55 C90.89 31.17, 90.97 33.64, 91.05 34.46 C91.13 35.27, 91.13 33.64, 91.05 34.46" stroke="none" stroke-width="0" fill="#ffffff"></path><path d="M91.05 34.46 C91.05 36.09, 90.89 37.74, 90.59 39.36 C90.28 40.98, 89.81 42.59, 89.21 44.16 C88.6 45.73, 87.83 47.28, 86.94 48.77 C86.04 50.26, 84.99 51.71, 83.82 53.08 C82.66 54.46, 81.34 55.78, 79.93 57.02 C78.52 58.25, 76.97 59.43, 75.34 60.5 C73.71 61.57, 71.95 62.56, 70.14 63.44 C68.32 64.33, 66.4 65.12, 64.44 65.8 C62.47 66.48, 60.42 67.06, 58.35 67.52 C56.28 67.98, 54.14 68.33, 52 68.56 C49.87 68.79, 47.68 68.91, 45.52 68.91 C43.37 68.91, 41.18 68.79, 39.05 68.56 C36.91 68.33, 34.77 67.98, 32.7 67.52 C30.63 67.06, 28.58 66.48, 26.61 65.8 C24.65 65.12, 22.73 64.33, 20.91 63.44 C19.1 62.56, 17.34 61.57, 15.71 60.5 C14.08 59.43, 12.53 58.25, 11.12 57.02 C9.71 55.78, 8.39 54.46, 7.23 53.08 C6.06 51.71, 5.01 50.26, 4.11 48.77 C3.22 47.28, 2.45 45.73, 1.84 44.16 C1.24 42.59, 0.77 40.98, 0.46 39.36 C0.16 37.74, 0 36.09, 0 34.46 C0 32.82, 0.16 31.17, 0.46 29.55 C0.77 27.93, 1.24 26.32, 1.84 24.75 C2.45 23.18, 3.22 21.63, 4.11 20.14 C5.01 18.66, 6.06 17.2, 7.23 15.83 C8.39 14.45, 9.71 13.13, 11.12 11.89 C12.53 10.66, 14.08 9.49, 15.71 8.42 C17.34 7.35, 19.1 6.35, 20.91 5.47 C22.73 4.59, 24.65 3.79, 26.61 3.11 C28.58 2.43, 30.63 1.86, 32.7 1.4 C34.77 0.94, 36.91 0.58, 39.05 0.35 C41.18 0.12, 43.37 0, 45.52 0 C47.68 0, 49.87 0.12, 52 0.35 C54.14 0.58, 56.28 0.94, 58.35 1.4 C60.42 1.86, 62.47 2.43, 64.44 3.11 C66.4 3.79, 68.32 4.59, 70.14 5.47 C71.95 6.35, 73.71 7.35, 75.34 8.42 C76.97 9.49, 78.52 10.66, 79.93 11.89 C81.34 13.13, 82.66 14.45, 83.82 15.83 C84.99 17.2, 86.04 18.66, 86.94 20.14 C87.83 21.63, 88.6 23.18, 89.21 24.75 C89.81 26.32, 90.28 27.93, 90.59 29.55 C90.89 31.17, 90.97 33.64, 91.05 34.46 C91.13 35.27, 91.13 33.64, 91.05 34.46" stroke="#ffffff" stroke-width="4" fill="none"></path></g><g stroke-linecap="round" transform="translate(397.9222813599986 409.80774028870235) rotate(0 30.30199032226301 51.71388360865694)"><path d="M60.6 51.71 C60.6 54.17, 60.5 56.65, 60.3 59.07 C60.09 61.5, 59.78 63.93, 59.38 66.28 C58.97 68.64, 58.46 70.97, 57.87 73.2 C57.27 75.43, 56.57 77.61, 55.79 79.67 C55.02 81.74, 54.14 83.73, 53.2 85.58 C52.26 87.43, 51.23 89.19, 50.15 90.8 C49.06 92.4, 47.89 93.89, 46.68 95.22 C45.48 96.54, 44.2 97.74, 42.89 98.75 C41.58 99.77, 40.22 100.64, 38.84 101.33 C37.46 102.02, 36.04 102.55, 34.61 102.9 C33.19 103.25, 31.74 103.43, 30.3 103.43 C28.86 103.43, 27.41 103.25, 25.99 102.9 C24.57 102.55, 23.14 102.02, 21.76 101.33 C20.39 100.64, 19.02 99.77, 17.71 98.75 C16.41 97.74, 15.13 96.54, 13.92 95.22 C12.71 93.89, 11.54 92.4, 10.46 90.8 C9.37 89.19, 8.34 87.43, 7.4 85.58 C6.46 83.73, 5.59 81.74, 4.81 79.67 C4.03 77.61, 3.34 75.43, 2.74 73.2 C2.14 70.97, 1.63 68.64, 1.23 66.28 C0.82 63.93, 0.51 61.5, 0.31 59.07 C0.1 56.65, 0 54.17, 0 51.71 C0 49.26, 0.1 46.78, 0.31 44.35 C0.51 41.93, 0.82 39.5, 1.23 37.14 C1.63 34.79, 2.14 32.46, 2.74 30.23 C3.34 28, 4.03 25.82, 4.81 23.76 C5.59 21.69, 6.46 19.7, 7.4 17.85 C8.34 15.99, 9.37 14.24, 10.46 12.63 C11.54 11.02, 12.71 9.54, 13.92 8.21 C15.13 6.88, 16.41 5.69, 17.71 4.67 C19.02 3.65, 20.39 2.79, 21.76 2.09 C23.14 1.4, 24.57 0.88, 25.99 0.53 C27.41 0.18, 28.86 0, 30.3 0 C31.74 0, 33.19 0.18, 34.61 0.53 C36.04 0.88, 37.46 1.4, 38.84 2.09 C40.22 2.79, 41.58 3.65, 42.89 4.67 C44.2 5.69, 45.48 6.88, 46.68 8.21 C47.89 9.54, 49.06 11.02, 50.15 12.63 C51.23 14.24, 52.26 15.99, 53.2 17.85 C54.14 19.7, 55.02 21.69, 55.79 23.76 C56.57 25.82, 57.27 28, 57.87 30.23 C58.46 32.46, 58.97 34.79, 59.38 37.14 C59.78 39.5, 60.09 41.93, 60.3 44.35 C60.5 46.78, 60.55 50.49, 60.6 51.71 C60.66 52.94, 60.66 50.49, 60.6 51.71" stroke="none" stroke-width="0" fill="#ffffff"></path><path d="M60.6 51.71 C60.6 54.17, 60.5 56.65, 60.3 59.07 C60.09 61.5, 59.78 63.93, 59.38 66.28 C58.97 68.64, 58.46 70.97, 57.87 73.2 C57.27 75.43, 56.57 77.61, 55.79 79.67 C55.02 81.74, 54.14 83.73, 53.2 85.58 C52.26 87.43, 51.23 89.19, 50.15 90.8 C49.06 92.4, 47.89 93.89, 46.68 95.22 C45.48 96.54, 44.2 97.74, 42.89 98.75 C41.58 99.77, 40.22 100.64, 38.84 101.33 C37.46 102.02, 36.04 102.55, 34.61 102.9 C33.19 103.25, 31.74 103.43, 30.3 103.43 C28.86 103.43, 27.41 103.25, 25.99 102.9 C24.57 102.55, 23.14 102.02, 21.76 101.33 C20.39 100.64, 19.02 99.77, 17.71 98.75 C16.41 97.74, 15.13 96.54, 13.92 95.22 C12.71 93.89, 11.54 92.4, 10.46 90.8 C9.37 89.19, 8.34 87.43, 7.4 85.58 C6.46 83.73, 5.59 81.74, 4.81 79.67 C4.03 77.61, 3.34 75.43, 2.74 73.2 C2.14 70.97, 1.63 68.64, 1.23 66.28 C0.82 63.93, 0.51 61.5, 0.31 59.07 C0.1 56.65, 0 54.17, 0 51.71 C0 49.26, 0.1 46.78, 0.31 44.35 C0.51 41.93, 0.82 39.5, 1.23 37.14 C1.63 34.79, 2.14 32.46, 2.74 30.23 C3.34 28, 4.03 25.82, 4.81 23.76 C5.59 21.69, 6.46 19.7, 7.4 17.85 C8.34 15.99, 9.37 14.24, 10.46 12.63 C11.54 11.02, 12.71 9.54, 13.92 8.21 C15.13 6.88, 16.41 5.69, 17.71 4.67 C19.02 3.65, 20.39 2.79, 21.76 2.09 C23.14 1.4, 24.57 0.88, 25.99 0.53 C27.41 0.18, 28.86 0, 30.3 0 C31.74 0, 33.19 0.18, 34.61 0.53 C36.04 0.88, 37.46 1.4, 38.84 2.09 C40.22 2.79, 41.58 3.65, 42.89 4.67 C44.2 5.69, 45.48 6.88, 46.68 8.21 C47.89 9.54, 49.06 11.02, 50.15 12.63 C51.23 14.24, 52.26 15.99, 53.2 17.85 C54.14 19.7, 55.02 21.69, 55.79 23.76 C56.57 25.82, 57.27 28, 57.87 30.23 C58.46 32.46, 58.97 34.79, 59.38 37.14 C59.78 39.5, 60.09 41.93, 60.3 44.35 C60.5 46.78, 60.55 50.49, 60.6 51.71 C60.66 52.94, 60.66 50.49, 60.6 51.71" stroke="#ffffff" stroke-width="4" fill="none"></path></g><g stroke-linecap="round" transform="translate(54.928680047870785 415.1136074693894) rotate(0 36.61695357810618 32.869130779415514)"><path d="M-1.85 0.6 L71.66 -1.71 L74.22 65.82 L1.67 67.26" stroke="none" stroke-width="0" fill="#ced4da"></path><path d="M-0.35 1.26 C18.03 -0.91, 33.74 -2.35, 71.44 0.32 M0.41 0.08 C15.25 1.27, 31.69 0.02, 72.33 0.87 M74.41 -0.14 C72.71 19.41, 74.18 42.13, 74.26 63.96 M73.32 0.77 C72.43 17.79, 73.68 37.32, 74.22 66.08 M74.48 64.99 C52.41 65.1, 32.01 64.39, -1.69 66.05 M73.1 65.31 C55.01 66.41, 39.5 66.53, 0.6 66.25 M1.99 67.36 C-0.96 41.02, 2.58 18.31, -1.63 1.7 M-0.44 65.76 C-0.58 51.57, -0.13 36.04, -0.03 0.64" stroke="#1971c2" stroke-width="1" fill="none"></path></g><g stroke-linecap="round" transform="translate(61.02632305961106 421.9478917236687) rotate(0 36.61695357810618 32.869130779415514)"><path d="M-1.57 -1.71 L74.22 0.08 L74.91 67.26 L0.08 67.59" stroke="none" stroke-width="0" fill="#ced4da"></path><path d="M0.99 -0.24 C28.27 -2.14, 55.44 -0.14, 71.53 -0.34 M-0.48 0.72 C16.65 -0.6, 31.93 0.81, 73.46 0.65 M72.28 -1.77 C74.14 15.29, 74.64 29.25, 72.9 64.9 M72.7 -0.83 C74.01 23.52, 74.28 47.23, 72.92 66.02 M72.12 64.7 C45.51 63.73, 19.71 65.78, -1.27 67.28 M72.33 66.01 C48.14 65.81, 21.87 65.94, 0.47 64.76 M-1.61 63.83 C1.28 45.74, -2.29 31.04, -1.6 -1.04 M-0.92 66.05 C-0.18 46.73, 0.26 29.83, -0.92 0.3" stroke="#1971c2" stroke-width="1" fill="none"></path></g><g stroke-linecap="round" transform="translate(67.12396607135133 428.7821759779482) rotate(0 36.61695357810618 32.869130779415514)"><path d="M0.99 0.08 L74.91 1.52 L73.31 67.59 L-0.34 67.61" stroke="none" stroke-width="0" fill="#ced4da"></path><path d="M-0.35 -1.68 C24.79 0.41, 51.46 -0.25, 71.72 0.82 M0.23 -0.53 C21.68 0.35, 45.41 0.12, 72.59 0.59 M73.75 -0.23 C73.94 17.5, 72.59 37.71, 74.37 65.9 M73.95 0.08 C73.88 25.14, 72.58 49.88, 73.77 66.36 M71.42 64 C52.31 65.67, 33.49 66.9, 1.1 65.48 M74.13 66.13 C55 66.45, 36.03 64.96, -0.23 66.73 M1.93 63.94 C-1.1 42.37, -1.07 14.57, -0.44 -0.88 M-0.47 65 C0.58 46.52, -0.32 26.34, -0.79 -0.85" stroke="#1971c2" stroke-width="1" fill="none"></path></g><g stroke-linecap="round" transform="translate(73.22160908309115 435.6164602322277) rotate(0 36.61695357810618 32.869130779415514)"><path d="M1.67 1.52 L73.31 1.85 L72.89 67.61 L-0.12 67.57" stroke="none" stroke-width="0" fill="#ced4da"></path><path d="M-1.79 0.32 C19.38 0.27, 40.65 1.43, 73.4 -0.96 M-0.91 0.87 C27.45 1.04, 53.81 0.98, 73.17 -0.48 M74.26 -1.78 C73.07 13.05, 74.54 27.95, 74.78 64.68 M74.22 0.34 C73.4 14.55, 74.25 29.17, 72.86 65.18 M71.55 66.05 C53.78 66.65, 37.97 64.84, -0.86 63.92 M73.83 66.25 C49.74 65.04, 25.08 67.02, 0.81 64.93 M-1.63 67.44 C-2.23 51.24, -1.08 37.94, 0.04 -1.85 M-0.03 66.37 C-0.61 44.28, -0.48 21.36, 0.49 0.04" stroke="#1971c2" stroke-width="1" fill="none"></path></g><g stroke-linecap="round" transform="translate(79.31925209483143 442.450744486507) rotate(0 36.61695357810618 32.869130779415514)"><path d="M0.08 1.85 L72.89 1.87 L73.11 67.57 L0.31 65.04" stroke="none" stroke-width="0" fill="#ced4da"></path><path d="M-1.7 -0.34 C14.29 0.7, 31.79 -1.07, 74.67 0.46 M0.22 0.65 C17.41 -0.05, 36.04 -1.12, 72.35 0.26 M72.9 -0.84 C74.7 19.15, 75.11 36.9, 71.58 67.18 M72.92 0.28 C74.42 20.86, 73.51 39.91, 72.72 64.83 M71.96 67.28 C58.73 65.59, 41.17 64.04, 0.54 67.53 M73.7 64.76 C48.18 67.11, 24.4 65.31, -0.95 66.7 M-1.6 64.7 C0.1 51.05, 0.58 36.27, 0.62 -0.94 M-0.92 66.04 C-0.77 50.03, 0.51 36.06, 0.84 0.76" stroke="#1971c2" stroke-width="1" fill="none"></path></g><g stroke-linecap="round" transform="translate(86.6341380562194 449.3381834547446) rotate(0 36.61695357810618 32.869130779415514)"><path d="M-0.34 1.87 L73.11 1.83 L73.54 65.04 L0.78 64.77" stroke="none" stroke-width="0" fill="#ced4da"></path><path d="M-1.52 0.82 C23.33 -0.83, 47.75 0.59, 72.16 -1.81 M-0.64 0.59 C28.3 -0.95, 55.86 -0.21, 73.12 0.51 M74.37 0.16 C74.67 12.83, 71.47 29.21, 73.39 67.72 M73.77 0.62 C72.66 21.41, 72.51 43.03, 72.36 64.9 M74.33 65.48 C49.25 64.49, 27.53 68.09, 0.78 66.94 M73 66.73 C48.3 64.22, 20.8 65.99, -0.9 64.92 M-0.44 64.86 C0.56 38.58, 1.15 14.18, -1.48 -0.06 M-0.79 64.88 C1.1 41.88, 1.44 18.7, 0.04 0.92" stroke="#1971c2" stroke-width="1" fill="none"></path></g><g stroke-linecap="round"><g transform="translate(130.1798085988048 414.98520522664546) rotate(0 15.263808053664889 16.96099294396049)"><path d="M0.17 -0.96 C9.33 10.09, 14.99 17.55, 30.6 34.88 M-0.07 -0.48 C9.42 12.65, 20.71 25.46, 27.96 34.27" stroke="#1971c2" stroke-width="1" fill="none"></path></g></g><mask></mask><g stroke-linecap="round"><g transform="translate(55.598429443747136 481.1654818405756) rotate(0 15.26335622090005 17.422779061246274)"><path d="M1.44 0.46 C9.22 9.92, 22.3 23.77, 31.41 32.74 M-0.89 0.26 C10.67 12.86, 20.69 24.38, 29.7 34.59" stroke="#1971c2" stroke-width="1" fill="none"></path></g></g><mask></mask><g stroke-linecap="round"><g transform="translate(56.4621935455707 415.5247255733233) rotate(0 15.861435825200488 16.59981849078406)"><path d="M-1.07 -1.81 C9.97 9.01, 17.49 15.92, 32.79 34.11 M-0.11 0.51 C6.79 8.39, 15.23 17.76, 31.7 35.01" stroke="#1971c2" stroke-width="1" fill="none"></path></g></g><mask></mask><g stroke-linecap="round"><g transform="translate(105.81634545596353 451.93836237053836) rotate(0 0.34379863411209044 31.020089882734624)"><path d="M1.75 0.44 C0.92 19.09, 0.77 40.61, -1.06 61.26 M-0.89 -0.17 C-0.53 21.12, -0.06 41.88, -0.64 62.21" stroke="#1971c2" stroke-width="1" fill="none"></path></g></g><mask></mask><g stroke-linecap="round"><g transform="translate(123.71619538146115 451.72042804330874) rotate(0 0.6564783029512 30.799773403804352)"><path d="M1.3 -1.28 C1.93 13, 0.02 24.51, 1.53 62.58 M-0.42 0.57 C-0.12 22.83, -0.38 43.28, 1.73 62.88" stroke="#1971c2" stroke-width="1" fill="none"></path></g></g><mask></mask><g stroke-linecap="round"><g transform="translate(143.05388031953407 451.0799137401099) rotate(0 0.6417280543405468 32.6229805660264)"><path d="M1.17 -0.14 C-0.4 19.18, 1.2 41.69, 1.43 63.26 M0.08 0.77 C-0.69 17.59, 0.68 36.93, 1.4 65.38" stroke="#1971c2" stroke-width="1" fill="none"></path></g></g><mask></mask><g stroke-linecap="round"><g transform="translate(159.06939563520564 475.217469348628) rotate(0 -36.76014929347048 -0.23560421468982895)"><path d="M-0.95 -1.77 C-16.62 -0.06, -33.26 -1.39, -72.99 0.08 M-0.53 -0.83 C-25.19 0.97, -50.83 1.56, -72.97 1.2" stroke="#1971c2" stroke-width="1" fill="none"></path></g></g><mask></mask><g stroke-linecap="round"><g transform="translate(87.38229065518317 497.0055866001843) rotate(0 35.52992506470741 -0.12063854972689114)"><path d="M0.52 -0.23 C21.38 -1.29, 40.37 -0.48, 70.54 -0.26 M0.72 0.08 C27.18 0.76, 52.06 0.53, 69.95 0.2" stroke="#1971c2" stroke-width="1" fill="none"></path></g></g><mask></mask><g stroke-linecap="round"><g transform="translate(72.38203037611765 432.8877128878413) rotate(0 0.17113266107776326 32.3525248544812)"><path d="M1.02 -1.78 C-0.25 13.33, 1.13 28.5, 1.13 65.98 M0.99 0.34 C0.08 14.84, 0.84 29.73, -0.79 66.48" stroke="#1971c2" stroke-width="1" fill="none"></path></g></g><mask></mask><g stroke-linecap="round"><g transform="translate(84.86275721355423 473.64940528685486) rotate(0 -15.468110054895305 -16.269368579496927)"><path d="M-0.33 -0.84 C-7.4 -9.31, -15.35 -19.74, -30.63 -30.47 M-0.31 0.28 C-8.69 -9.1, -18.52 -20.1, -29.49 -32.82" stroke="#1971c2" stroke-width="1" fill="none"></path></g></g><mask></mask><g stroke-linecap="round"><g transform="translate(85.04348324101238 494.7518267283475) rotate(0 -15.23563088495871 -14.518837387543158)"><path d="M1.13 0.16 C-4.9 -7.27, -14.59 -10.86, -30.58 -26.84 M0.54 0.62 C-10.55 -10.1, -20.97 -20.08, -31.6 -29.66" stroke="#1971c2" stroke-width="1" fill="none"></path></g></g><mask></mask><g stroke-linecap="round"><g transform="translate(141.6452803996358 449.1450821520233) rotate(0 -14.585035044310871 -17.975541888768817)"><path d="M1.54 -1.06 C-9.82 -7.5, -15.97 -15.93, -30.19 -35.38 M-0.37 -0.56 C-10.83 -12.12, -21.31 -23.46, -30.71 -35.39" stroke="#1971c2" stroke-width="1" fill="none"></path></g></g><mask></mask><g stroke-linecap="round"><g transform="translate(122.36872338261446 449.9636647469832) rotate(0 -13.074135090893378 -16.31800062268519)"><path d="M-1.66 1.44 C-8.18 -8.83, -15.73 -22.1, -25.63 -33.55 M-0.52 -0.91 C-10.23 -13.54, -18.69 -25.87, -25.42 -34.08" stroke="#1971c2" stroke-width="1" fill="none"></path></g></g><mask></mask><g stroke-linecap="round"><g transform="translate(106.88741294222518 451.4759163591001) rotate(0 -14.976665503918412 -17.45056837220295)"><path d="M0.16 1.98 C-6.43 -9.33, -13.95 -16.57, -28.73 -36.88 M-0.87 -0.84 C-6.98 -9.73, -13.69 -17.38, -30.11 -36.57" stroke="#1971c2" stroke-width="1" fill="none"></path></g></g><mask></mask><g stroke-linecap="round"><g transform="translate(14.25958500922252 233.14192959434206) rotate(0 -2.1297925046112596 14.403686457701042)"><path d="M0 0 C-0.88 5.96, -1.76 11.92, -4.26 28.81 M0 0 C-1.53 10.36, -3.07 20.73, -4.26 28.81" stroke="#ffffff" stroke-width="4" fill="none"></path></g></g><mask></mask><g stroke-linecap="round"><g transform="translate(17.235380428804547 281.02439636750194) rotate(0 2.624556357697429 9.567117363246894)"><path d="M0 0 C1.32 4.79, 2.63 9.59, 5.25 19.13 M0 0 C1.99 7.26, 3.98 14.51, 5.25 19.13" stroke="#ffffff" stroke-width="4" fill="none"></path></g></g><mask></mask><g stroke-linecap="round"><g transform="translate(64.37275310218047 152.05792233976388) rotate(0 36.337058377550875 2.3837061485760387)" fill-rule="evenodd"><path d="M-0.57 -1.6 L-24.04 3.41 L-7.69 29.26 L65.63 39.35 L95.26 -17.93 L21.42 -34.53 L12.07 19.92 L2.6 17.83 L0.39 -0.49" stroke="none" stroke-width="0" fill="#e9ecef" fill-rule="evenodd"></path><path d="M-0.53 0.45 C-8.48 1.93, -14.51 1.81, -24.02 3.6 M0.86 0.47 C-7.05 0.86, -13.65 0.67, -22.82 1.02 M-22.2 3.67 C-18.77 11.64, -16.67 18.28, -8.42 31.36 M-23.86 1.04 C-18.15 11.11, -13.35 20.41, -10.22 31.74 M-10.35 30.52 C7.77 32.45, 27.71 36.33, 67.08 38.34 M-8.84 30.53 C18.37 34.93, 45.88 37.65, 66.47 39.41 M65.04 40.95 C76.74 17.41, 86.37 -3.91, 96.7 -18.95 M66.23 40.62 C77.2 17.49, 89.67 -5.62, 96.5 -19.56 M94.76 -19.64 C67.67 -24.17, 36.96 -30.48, 21.66 -35.36 M96.57 -18.97 C68.83 -24.21, 40.68 -29.81, 21.82 -36.11 M19.65 -36.18 C18.76 -24.31, 16.79 -11.54, 11.57 19.08 M20.58 -34.38 C18.1 -18.02, 15.28 0.05, 13.43 19.62 M12.33 19.79 C9.34 19.06, 7.92 18.27, 1.92 16.85 M12.52 18.77 C9.35 18.23, 6.26 17.78, 0.77 17.46 M1.22 17.42 C1.67 11.08, 0.48 6.32, 0.46 1.67 M0.36 17.35 C-0.19 10.84, 0.91 5.23, -0.48 0.08 M0 0 C0 0, 0 0, 0 0 M0 0 C0 0, 0 0, 0 0" stroke="#e03131" stroke-width="1" fill="none"></path></g></g><mask></mask><g stroke-linecap="round" transform="translate(75.6603145052677 312.8344084905551) rotate(0 1.8694284361504288 2.440642680529777)"><path d="M2.08 0.15 C2.41 0.56, 2.9 1.34, 3.16 1.83 C3.41 2.33, 3.6 2.54, 3.62 3.13 C3.63 3.71, 3.63 5.1, 3.24 5.34 C2.85 5.59, 1.61 4.79, 1.29 4.59 C0.97 4.38, 1.56 4.46, 1.33 4.13 C1.09 3.8, -0.08 2.97, -0.13 2.59 C-0.17 2.21, 0.8 2.15, 1.07 1.86 C1.35 1.57, 1.1 0.92, 1.52 0.84 C1.93 0.75, 3.41 1.44, 3.58 1.37 C3.74 1.3, 2.79 0.52, 2.51 0.41 M0.62 0.46 C0.61 0.24, 0.95 -1.08, 1.59 -1.15 C2.23 -1.22, 4.3 -0.87, 4.48 0.03 C4.66 0.93, 2.73 3.27, 2.67 4.23 C2.61 5.19, 4.31 5.85, 4.12 5.79 C3.94 5.72, 2.36 4.13, 1.58 3.87 C0.8 3.61, -0.07 4.43, -0.57 4.24 C-1.07 4.05, -1.39 3.18, -1.41 2.73 C-1.44 2.28, -1.12 1.78, -0.7 1.53 C-0.28 1.28, 0.7 1.68, 1.13 1.24 C1.55 0.81, 1.71 -0.95, 1.83 -1.08" stroke="none" stroke-width="0" fill="#e9ecef"></path><path d="M0.16 0.19 C0.35 -0.03, 1.89 0.04, 2.35 0.07 C2.82 0.09, 2.8 -0.12, 2.96 0.34 C3.12 0.79, 3.15 2.21, 3.31 2.8 C3.47 3.39, 4.23 3.5, 3.92 3.88 C3.62 4.26, 2.2 4.84, 1.51 5.08 C0.81 5.33, 0 5.66, -0.24 5.37 C-0.48 5.08, 0.01 4.03, 0.08 3.33 C0.15 2.64, -0.02 1.69, 0.19 1.21 C0.39 0.73, 0.88 0.63, 1.32 0.44 C1.76 0.25, 2.75 0.04, 2.83 0.05 M2.11 -0.24 C2.33 0.32, 2.16 1.8, 2.59 2.26 C3.01 2.72, 4.39 2.2, 4.66 2.54 C4.92 2.87, 4.45 3.82, 4.18 4.26 C3.91 4.7, 3.73 5.08, 3.05 5.16 C2.38 5.23, 0.63 5.13, 0.13 4.74 C-0.37 4.35, -0.1 3.47, 0.06 2.82 C0.23 2.16, 0.95 1.3, 1.14 0.78 C1.34 0.26, 0.77 -0.4, 1.24 -0.32 C1.71 -0.24, 3.67 1.35, 3.98 1.25 C4.28 1.15, 3.51 -0.84, 3.06 -0.92" stroke="#fab005" stroke-width="1" fill="none"></path></g><g stroke-linecap="round" transform="translate(116.61320241479825 286.66024669412866) rotate(0 2.67792738558137 3.13590850323385)"><path d="M2.02 0.28 C2.7 0.37, 3.67 1.25, 4.28 1.5 C4.88 1.75, 5.47 1.24, 5.65 1.78 C5.82 2.33, 5.75 4.12, 5.31 4.78 C4.87 5.44, 3.73 5.39, 3.03 5.75 C2.33 6.12, 1.59 7.1, 1.12 6.97 C0.65 6.83, 0.25 5.54, 0.23 4.94 C0.21 4.33, 0.74 3.88, 0.99 3.34 C1.25 2.79, 1.47 2.28, 1.76 1.67 C2.06 1.07, 2.7 0.1, 2.78 -0.27 C2.87 -0.65, 2.24 -0.73, 2.28 -0.58 M3.06 -0.47 C3.23 -0.73, 3.26 -0.56, 3.53 -0.03 C3.81 0.49, 4.72 1.74, 4.69 2.68 C4.66 3.61, 3.67 5.2, 3.35 5.59 C3.04 5.97, 3.03 5.08, 2.8 5 C2.57 4.92, 2.52 5.4, 1.98 5.13 C1.44 4.86, -0.26 3.85, -0.44 3.37 C-0.61 2.89, 0.63 2.78, 0.94 2.25 C1.24 1.71, 1.12 0.53, 1.41 0.15 C1.7 -0.24, 2.25 -0.29, 2.68 -0.07 C3.1 0.15, 3.85 1.17, 3.98 1.48" stroke="none" stroke-width="0" fill="#e9ecef"></path><path d="M2.67 -0.3 C3.28 -0.17, 4.86 1.11, 5.36 1.47 C5.86 1.83, 5.86 1.28, 5.66 1.86 C5.47 2.44, 4.4 4.23, 4.19 4.97 C3.98 5.7, 4.66 6.09, 4.38 6.25 C4.1 6.41, 3.34 6.27, 2.5 5.93 C1.66 5.58, -0.23 4.82, -0.64 4.2 C-1.05 3.58, -0.34 2.8, 0.02 2.2 C0.38 1.61, 0.97 0.96, 1.52 0.63 C2.07 0.31, 2.82 0.41, 3.32 0.26 C3.82 0.1, 4.6 -0.43, 4.51 -0.3 M3.69 1.06 C4.33 1.21, 4.18 1.21, 4.61 1.68 C5.04 2.14, 6.38 3.45, 6.29 3.84 C6.2 4.23, 4.73 3.62, 4.08 4.01 C3.43 4.39, 2.9 5.6, 2.39 6.16 C1.89 6.72, 1.54 7.69, 1.04 7.36 C0.55 7.03, -0.48 5.11, -0.6 4.18 C-0.71 3.25, 0.36 2.18, 0.37 1.78 C0.39 1.39, -0.66 2.28, -0.52 1.82 C-0.38 1.35, 0.49 -0.91, 1.2 -1.02 C1.91 -1.12, 3.29 1.01, 3.75 1.2" stroke="#fab005" stroke-width="1" fill="none"></path></g><g stroke-linecap="round" transform="translate(73.54855275332238 276.53850337895267) rotate(0 2.6288837383367536 2.71398889090824)"><path d="M4.18 0.2 C4.67 0.42, 3.93 1.4, 4.16 2.07 C4.4 2.74, 5.56 3.83, 5.58 4.21 C5.61 4.6, 4.8 4.01, 4.32 4.37 C3.83 4.72, 3.37 6.34, 2.65 6.36 C1.93 6.38, 0.53 4.93, 0 4.5 C-0.54 4.07, -0.62 4.24, -0.58 3.76 C-0.54 3.29, -0.32 2.29, 0.25 1.65 C0.82 1.01, 2.21 0.11, 2.85 -0.09 C3.48 -0.28, 3.91 0.26, 4.07 0.49 C4.23 0.73, 3.81 1.12, 3.81 1.33 M3.42 0.69 C4.13 0.84, 5.58 0.13, 5.82 0.48 C6.07 0.83, 5.14 1.96, 4.91 2.79 C4.69 3.62, 4.62 5.12, 4.45 5.46 C4.29 5.81, 4.42 5.16, 3.91 4.84 C3.39 4.53, 2.13 3.85, 1.35 3.57 C0.57 3.29, -0.73 3.37, -0.8 3.15 C-0.86 2.93, 0.48 2.65, 0.95 2.24 C1.42 1.83, 1.86 0.97, 2.01 0.71 C2.17 0.45, 1.71 0.71, 1.89 0.67 C2.06 0.64, 3.07 0.81, 3.06 0.52" stroke="none" stroke-width="0" fill="#e9ecef"></path><path d="M1.63 0.33 C2.04 0.11, 3.71 -0.22, 4.24 -0.03 C4.78 0.15, 4.57 0.8, 4.85 1.44 C5.12 2.07, 6.03 3.01, 5.88 3.79 C5.73 4.58, 4.47 5.76, 3.94 6.15 C3.4 6.53, 3.08 6.45, 2.66 6.12 C2.24 5.79, 1.88 4.91, 1.4 4.18 C0.91 3.45, -0.05 2.28, -0.26 1.75 C-0.47 1.22, -0.42 1.2, 0.15 1.01 C0.71 0.81, 2.55 0.61, 3.13 0.58 C3.7 0.54, 3.71 0.9, 3.6 0.78 M0.66 -0.9 C1.39 -1.07, 2.96 -0.45, 3.43 0.03 C3.9 0.51, 3.27 1.61, 3.48 2 C3.7 2.39, 4.63 1.84, 4.72 2.38 C4.81 2.92, 4.24 4.78, 4.02 5.25 C3.8 5.72, 3.91 5.39, 3.42 5.22 C2.92 5.05, 1.64 4.41, 1.05 4.21 C0.47 4.02, -0.17 4.45, -0.09 4.03 C-0.02 3.61, 1.03 2.45, 1.51 1.69 C1.99 0.93, 2.97 -0.28, 2.81 -0.53 C2.64 -0.78, 0.96 0.02, 0.51 0.19" stroke="#fab005" stroke-width="1" fill="none"></path></g><g stroke-linecap="round" transform="translate(90.2230738623789 296.82811867024304) rotate(0 2.6288837383367536 2.71398889090824)"><path d="M2.13 -0.73 C2.41 -0.88, 2.51 -0.55, 3.03 -0.16 C3.55 0.23, 4.81 1.09, 5.26 1.61 C5.71 2.13, 6.09 2.47, 5.74 2.97 C5.4 3.47, 3.79 4.29, 3.19 4.59 C2.59 4.89, 2.55 4.76, 2.16 4.77 C1.78 4.79, 1.09 4.92, 0.87 4.68 C0.64 4.44, 0.87 4.06, 0.83 3.35 C0.79 2.63, 0.41 0.86, 0.61 0.4 C0.82 -0.07, 1.85 0.62, 2.06 0.56 C2.27 0.49, 1.83 -0.06, 1.87 0.02 M3.05 1.38 C3.52 1.41, 4.01 0.66, 4.57 0.67 C5.12 0.67, 6.18 0.92, 6.37 1.43 C6.55 1.94, 6.02 3.17, 5.67 3.75 C5.32 4.32, 5.08 4.55, 4.26 4.9 C3.43 5.26, 1.35 6.26, 0.73 5.87 C0.11 5.49, 0.83 3.41, 0.55 2.59 C0.28 1.77, -0.95 1.12, -0.91 0.96 C-0.88 0.79, 0.19 1.83, 0.75 1.6 C1.31 1.37, 2.12 -0.36, 2.46 -0.43 C2.79 -0.5, 2.64 1.22, 2.76 1.17" stroke="none" stroke-width="0" fill="#e9ecef"></path><path d="M3.45 0.74 C4.12 1.01, 5.16 0.76, 5.4 1.23 C5.64 1.69, 5.19 2.83, 4.88 3.5 C4.58 4.17, 3.86 4.75, 3.59 5.23 C3.33 5.7, 3.6 6.49, 3.28 6.36 C2.95 6.24, 2.18 4.9, 1.65 4.47 C1.11 4.04, 0.13 4.18, 0.05 3.78 C-0.03 3.38, 1.04 2.49, 1.19 2.05 C1.34 1.61, 0.66 1.54, 0.94 1.14 C1.22 0.74, 2.36 -0.18, 2.86 -0.33 C3.35 -0.47, 3.91 0.05, 3.91 0.28 M4.9 -1.15 C5.42 -1.07, 4.77 0.24, 4.85 1.03 C4.93 1.82, 5.5 3.19, 5.38 3.61 C5.26 4.03, 4.54 3.4, 4.11 3.53 C3.69 3.66, 3.57 4.16, 2.84 4.4 C2.11 4.63, 0.3 5.29, -0.27 4.92 C-0.84 4.54, -0.46 2.89, -0.59 2.15 C-0.73 1.4, -1.34 0.93, -1.07 0.43 C-0.8 -0.07, 0.26 -1.01, 1.04 -0.84 C1.82 -0.67, 3.3 1.18, 3.63 1.46 C3.96 1.74, 2.95 1.21, 3.02 0.87" stroke="#fab005" stroke-width="1" fill="none"></path></g><g transform="translate(326.2240297658732 288.70934416367606) rotate(0 11.783988952636719 10)"><text x="0" y="0" font-family="Virgil, Segoe UI Emoji" font-size="16px" fill="#fab005" text-anchor="start" style="white-space: pre;" direction="ltr" dominant-baseline="text-before-edge">las</text></g><g transform="translate(291.600067363529 144.87094681685437) rotate(0 46.40795135498024 10)"><text x="0" y="0" font-family="Virgil, Segoe UI Emoji" font-size="16px" fill="#e03131" text-anchor="start" style="white-space: pre;" direction="ltr" dominant-baseline="text-before-edge">shape (.shp)</text></g><g transform="translate(311.14404319360756 517.173101937523) rotate(0 26.863975524902344 10)"><text x="0" y="0" font-family="Virgil, Segoe UI Emoji" font-size="16px" fill="#1971c2" text-anchor="start" style="white-space: pre;" direction="ltr" dominant-baseline="text-before-edge">geotiff</text></g><g transform="translate(504.9223343057206 288.1150167039151) rotate(0 135.35989379882812 10)"><text x="0" y="0" font-family="Virgil, Segoe UI Emoji" font-size="16px" fill="#fab005" text-anchor="start" style="white-space: pre;" direction="ltr" dominant-baseline="text-before-edge">cloud-optimized point cloud (COPC)</text></g><g transform="translate(584.118101990241 199.03902271396453) rotate(0 41.15996551513672 10)"><text x="0" y="0" font-family="Virgil, Segoe UI Emoji" font-size="16px" fill="#f08c00" text-anchor="start" style="white-space: pre;" direction="ltr" dominant-baseline="text-before-edge">flatgeobuf</text></g><g mask="url(#mask-o-gxwSj7P3lsY1_9XPzmW)" stroke-linecap="round"><g transform="translate(491.341883577134 298.93121619774104) rotate(0 -63.225114362604245 0.8622043207083152)"><path d="M1.58 0.14 C-32.69 0.05, -64.36 -1.58, -128.03 2.11 M0.63 0.79 C-42.57 -0.58, -86.73 -0.58, -127.28 -0.07" stroke="#fab005" stroke-width="1" fill="none"></path></g><g transform="translate(491.341883577134 298.93121619774104) rotate(0 -63.225114362604245 0.8622043207083152)"><path d="M-97.59 -10.41 C-106.31 -7.67, -112.52 -6.76, -128.91 1.35 M-98.54 -9.77 C-108.38 -7.16, -119.18 -3.84, -128.15 -0.83" stroke="#fab005" stroke-width="1" fill="none"></path></g><g transform="translate(491.341883577134 298.93121619774104) rotate(0 -63.225114362604245 0.8622043207083152)"><path d="M-97.42 10.11 C-106.37 7.54, -112.62 3.13, -128.91 1.35 M-98.37 10.76 C-108.27 6.39, -119.12 2.75, -128.15 -0.83" stroke="#fab005" stroke-width="1" fill="none"></path></g></g><mask id="mask-o-gxwSj7P3lsY1_9XPzmW"><rect x="0" y="0" fill="#fff" width="717.7445797513519" height="399.6264340614704"></rect><rect x="412.70854391287685" y="289.2788251296056" fill="#000" width="30.863983154296875" height="20" opacity="1"></rect></mask><g transform="translate(412.70854391287685 289.2788251296058) rotate(0 15.408225301653374 10.514595388843645)"><text x="15.431991577148438" y="0" font-family="Virgil, Segoe UI Emoji" font-size="16px" fill="#fab005" text-anchor="middle" style="white-space: pre;" direction="ltr" dominant-baseline="text-before-edge">is a</text></g><g transform="translate(524.2183166665604 516.9769481020002) rotate(0 116.06391143798828 10)"><text x="0" y="0" font-family="Virgil, Segoe UI Emoji" font-size="16px" fill="#1971c2" text-anchor="start" style="white-space: pre;" direction="ltr" dominant-baseline="text-before-edge">cloud-optimized geotiff (COG)</text></g><g mask="url(#mask-IbJRb3aBqnx6TgAfyyROg)" stroke-linecap="round"><g transform="translate(516.1107814075754 524.0895474876187) rotate(0 -70.72693678004362 0.26475870337833385)"><path d="M-0.65 0.35 C-46.13 -1.64, -90.97 0.65, -141.17 -0.01 M-0.29 -0.4 C-30.69 0.95, -63.68 0.4, -140.64 1.01" stroke="#1971c2" stroke-width="1" fill="none"></path></g><g transform="translate(516.1107814075754 524.0895474876187) rotate(0 -70.72693678004362 0.26475870337833385)"><path d="M-113.15 -9.06 C-122.92 -7.87, -132.04 -2.77, -141.14 -0.6 M-112.79 -9.8 C-117.96 -6.25, -125.79 -4.83, -140.61 0.42" stroke="#1971c2" stroke-width="1" fill="none"></path></g><g transform="translate(516.1107814075754 524.0895474876187) rotate(0 -70.72693678004362 0.26475870337833385)"><path d="M-113.04 11.47 C-122.81 6.14, -131.97 4.72, -141.14 -0.6 M-112.67 10.72 C-118.03 9.68, -125.89 6.51, -140.61 0.42" stroke="#1971c2" stroke-width="1" fill="none"></path></g></g><mask id="mask-IbJRb3aBqnx6TgAfyyROg"><rect x="0" y="0" fill="#fff" width="756.7750709549605" height="625.6925546187246"></rect><rect x="430.3466450567339" y="514.8910510531716" fill="#000" width="30.863983154296875" height="20" opacity="1"></rect></mask><g transform="translate(430.3466450567339 514.8910510531716) rotate(0 15.037199570797384 9.463255137825513)"><text x="15.431991577148438" y="0" font-family="Virgil, Segoe UI Emoji" font-size="16px" fill="#1971c2" text-anchor="middle" style="white-space: pre;" direction="ltr" dominant-baseline="text-before-edge">is a</text></g><g transform="translate(304.27204154565834 440.21769869836237) rotate(0 33.73597717285156 10)"><text x="0" y="0" font-family="Virgil, Segoe UI Emoji" font-size="16px" fill="#1971c2" text-anchor="start" style="white-space: pre;" direction="ltr" dominant-baseline="text-before-edge">netCDF4</text></g><g transform="translate(602.3730916724512 549.7393024673705) rotate(0 16.79198455810547 10)"><text x="0" y="0" font-family="Virgil, Segoe UI Emoji" font-size="16px" fill="#1971c2" text-anchor="start" style="white-space: pre;" direction="ltr" dominant-baseline="text-before-edge">zarr</text></g><g transform="translate(867.1769948660371 480.1092277990573) rotate(0 31.855979919433594 10)"><text x="0" y="0" font-family="Virgil, Segoe UI Emoji" font-size="16px" fill="#1971c2" text-anchor="start" style="white-space: pre;" direction="ltr" dominant-baseline="text-before-edge">kerchunk</text></g><g mask="url(#mask-BPxtlrNHlxHZ8qmfugCM4)" stroke-linecap="round"><g transform="translate(854.338615645383 489.32890905110924) rotate(0 -239.25731603649092 -1.6573244242142664)"><path d="M-0.28 -0.79 C-112.8 -1.39, -227.12 -1.27, -478.4 -3.23 M-0.11 -0.29 C-119.59 0.21, -239.06 -0.05, -478.05 -2.96" stroke="#1971c2" stroke-width="1" fill="none"></path></g><g transform="translate(854.338615645383 489.32890905110924) rotate(0 -239.25731603649092 -1.6573244242142664)"><path d="M-450.39 -14.75 C-454.78 -10.8, -463.2 -6.34, -477.92 -2.73 M-450.01 -13.58 C-456.68 -10.73, -463.27 -6.94, -477.11 -2.12" stroke="#1971c2" stroke-width="1" fill="none"></path></g><g transform="translate(854.338615645383 489.32890905110924) rotate(0 -239.25731603649092 -1.6573244242142664)"><path d="M-450.6 5.77 C-454.75 4.85, -463.11 4.44, -477.92 -2.73 M-450.23 6.94 C-456.71 4.65, -463.25 3.31, -477.11 -2.12" stroke="#1971c2" stroke-width="1" fill="none"></path></g></g><mask id="mask-BPxtlrNHlxHZ8qmfugCM4"><rect x="0" y="0" fill="#fff" width="1432.793076358414" height="592.6626663844696"></rect><rect x="574.7434119612308" y="477.66203038442904" fill="#000" width="80.73594665527344" height="20" opacity="1"></rect></mask><g transform="translate(574.7434119612299 477.6620303844288) rotate(0 40.33788764766177 10.009554242466038)"><text x="40.36797332763672" y="0" font-family="Virgil, Segoe UI Emoji" font-size="16px" fill="#1971c2" text-anchor="middle" style="white-space: pre;" direction="ltr" dominant-baseline="text-before-edge">references</text></g><g transform="translate(310.4000398977091 478.68493080485985) rotate(0 27.60797882080078 10)"><text x="0" y="0" font-family="Virgil, Segoe UI Emoji" font-size="16px" fill="#1971c2" text-anchor="start" style="white-space: pre;" direction="ltr" dominant-baseline="text-before-edge">GRIB2</text></g><g transform="translate(320.29798325228876 379.906624755837) rotate(0 20.183982849121094 10)"><text x="0" y="0" font-family="Virgil, Segoe UI Emoji" font-size="16px" fill="#2f9e44" text-anchor="start" style="white-space: pre;" direction="ltr" dominant-baseline="text-before-edge">HDF5</text></g><g transform="translate(249.72808097436973 43.660999939818) rotate(0 88.27993774414085 10)"><text x="0" y="0" font-family="Virgil, Segoe UI Emoji" font-size="16px" fill="#1e1e1e" text-anchor="start" style="white-space: pre;" direction="ltr" dominant-baseline="text-before-edge">traditional file format</text></g><g transform="translate(534.2651271420159 42.011788579232075) rotate(0 104.70391845703125 10)"><text x="0" y="0" font-family="Virgil, Segoe UI Emoji" font-size="16px" fill="#1e1e1e" text-anchor="start" style="white-space: pre;" direction="ltr" dominant-baseline="text-before-edge">cloud-optimized file format</text></g><g transform="translate(831.720224502275 42.90304931823334) rotate(0 52.14396667480469 10)"><text x="0" y="0" font-family="Virgil, Segoe UI Emoji" font-size="16px" fill="#1e1e1e" text-anchor="start" style="white-space: pre;" direction="ltr" dominant-baseline="text-before-edge">reference file</text></g><g transform="translate(78.39991777816658 44.156664910431346) rotate(0 40.335975646972656 10)"><text x="0" y="0" font-family="Virgil, Segoe UI Emoji" font-size="16px" fill="#1e1e1e" text-anchor="start" style="white-space: pre;" direction="ltr" dominant-baseline="text-before-edge">data type</text></g><g transform="translate(79.3748175428841 325.83728416904967) rotate(0 18.383987426757812 10)"><text x="0" y="0" font-family="Virgil, Segoe UI Emoji" font-size="16px" fill="#fab005" text-anchor="start" style="white-space: pre;" direction="ltr" dominant-baseline="text-before-edge">point</text></g><g transform="translate(75.3240851097612 203.58062200257507) rotate(0 24.967987060546875 10)"><text x="0" y="0" font-family="Virgil, Segoe UI Emoji" font-size="16px" fill="#e03131" text-anchor="start" style="white-space: pre;" direction="ltr" dominant-baseline="text-before-edge">vector</text></g><g transform="translate(23.56364906691624 534.2092317088033) rotate(0 83.54395294189453 10)"><text x="0" y="0" font-family="Virgil, Segoe UI Emoji" font-size="16px" fill="#1971c2" text-anchor="start" style="white-space: pre;" direction="ltr" dominant-baseline="text-before-edge">raster + data cubes</text></g><g stroke-linecap="round"><g transform="translate(38.651282442637694 80.13456661840962) rotate(0 466.41302086488076 0.05006921481287918)"><path d="M0.58 0.61 C344.14 -1.71, 686.87 -1.86, 932.49 1.21 M0.33 -0.39 C288.94 -1.28, 578.31 -1.1, 932.44 1.13" stroke="#1e1e1e" stroke-width="1" fill="none"></path></g></g><mask></mask><g stroke-linecap="round"><g transform="translate(802.8518790691892 10.32530360733972) rotate(0 0.23063115396826106 298.2637263649861)"><path d="M-0.62 0.52 C-1.17 163.81, -0.42 327.49, 0.58 596.65 M-0.04 -0.13 C0.56 161.72, 0.66 323.97, 1.27 595.7" stroke="#1e1e1e" stroke-width="1" fill="none"></path></g></g><mask></mask><g stroke-linecap="round"><g transform="translate(200.30059154179844 10.295038609857443) rotate(0 0.29815209920093366 295.36709614006594)"><path d="M-0.23 0.57 C0.51 142.41, 1.46 284.05, 0.74 590.83 M0.11 -0.1 C0.23 142.86, 0.19 286.36, -0.4 589.88" stroke="#1e1e1e" stroke-width="1" fill="none"></path></g></g><mask></mask><g stroke-linecap="round"><g transform="translate(480.13348847034695 10.196059323847294) rotate(0 0.3318458316975921 295.87471302319403)"><path d="M-0.1 -0.2 C-0.33 229.7, -0.71 459.85, 0.71 590.94 M0.22 0.14 C1.27 217.02, 1.21 433.57, 0.22 591.95" stroke="#1e1e1e" stroke-width="1" fill="none"></path></g></g><mask></mask><g transform="translate(308.53624474637763 219.48104414850434) rotate(0 27.951980590820312 10)"><text x="0" y="0" font-family="Virgil, Segoe UI Emoji" font-size="16px" fill="#f08c00" text-anchor="start" style="white-space: pre;" direction="ltr" dominant-baseline="text-before-edge">geojson</text></g><g transform="translate(582.1366813617547 225.04552563247114) rotate(0 43.343971252441406 10)"><text x="0" y="0" font-family="Virgil, Segoe UI Emoji" font-size="16px" fill="#f08c00" text-anchor="start" style="white-space: pre;" direction="ltr" dominant-baseline="text-before-edge">geoparquet</text></g><g stroke-linecap="round"><g transform="translate(569.375621452316 488.6158865098836) rotate(0 -99.17133129441231 17.596889168802022)"><path d="M-0.25 0.4 C-46.44 10.37, -92 17.87, -198.16 34.43 M0.74 -0.24 C-71.18 14.51, -143.72 26.09, -199.09 35.43" stroke="#1971c2" stroke-width="1" fill="none"></path></g><g transform="translate(569.375621452316 488.6158865098836) rotate(0 -99.17133129441231 17.596889168802022)"><path d="M-173.25 21.1 C-178.96 25.03, -183.86 27.79, -198.91 35.23 M-172.15 20.39 C-181.85 27.14, -192.19 31.45, -199.94 36.35" stroke="#1971c2" stroke-width="1" fill="none"></path></g><g transform="translate(569.375621452316 488.6158865098836) rotate(0 -99.17133129441231 17.596889168802022)"><path d="M-169.86 41.34 C-176.48 40.54, -182.18 38.53, -198.91 35.23 M-168.76 40.63 C-179.74 40.08, -191.31 37.07, -199.94 36.35" stroke="#1971c2" stroke-width="1" fill="none"></path></g></g><mask></mask><g stroke-linecap="round"><g transform="translate(567.3883580039051 487.20743765809686) rotate(0 -95.57718522687355 -19.03269035392168)"><path d="M0.44 -0.69 C-44.35 -6.93, -84.61 -17.85, -191.1 -38.18 M0.35 0.11 C-45.57 -6.51, -89.07 -14.8, -191.59 -35.87" stroke="#1971c2" stroke-width="1" fill="none"></path></g><g transform="translate(567.3883580039051 487.20743765809686) rotate(0 -95.57718522687355 -19.03269035392168)"><path d="M-161.49 -41.01 C-169.54 -37.58, -173.27 -39.37, -190.32 -37.82 M-161.57 -40.21 C-169.59 -39.02, -175.44 -37.9, -190.82 -35.51" stroke="#1971c2" stroke-width="1" fill="none"></path></g><g transform="translate(567.3883580039051 487.20743765809686) rotate(0 -95.57718522687355 -19.03269035392168)"><path d="M-165.56 -20.9 C-172.81 -21.97, -175.62 -28.28, -190.32 -37.82 M-165.65 -20.1 C-172.85 -23.6, -177.76 -27.14, -190.82 -35.51" stroke="#1971c2" stroke-width="1" fill="none"></path></g></g><mask></mask><g stroke-linecap="round"><g transform="translate(566.4558233760094 485.0819018338253) rotate(0 -96.92469244370841 -46.83422683259414)"><path d="M1.12 1.39 C-72.62 -33.8, -142.33 -67.99, -194.75 -94.03 M-0.45 0.02 C-59.69 -30.36, -119.68 -60.07, -194.97 -95.06" stroke="#1971c2" stroke-width="1" fill="none"></path></g><g transform="translate(566.4558233760094 485.0819018338253) rotate(0 -96.92469244370841 -46.83422683259414)"><path d="M-163.81 -90.71 C-176.75 -93.55, -185.67 -93.79, -194.02 -93.47 M-165.61 -92.28 C-174.78 -93.61, -184.21 -95.1, -194.27 -94.65" stroke="#1971c2" stroke-width="1" fill="none"></path></g><g transform="translate(566.4558233760094 485.0819018338253) rotate(0 -96.92469244370841 -46.83422683259414)"><path d="M-172.57 -72.15 C-182.43 -81.85, -188.16 -88.87, -194.02 -93.47 M-174.37 -73.73 C-180.75 -80.67, -187.5 -87.83, -194.27 -94.65" stroke="#1971c2" stroke-width="1" fill="none"></path></g></g><mask></mask></svg>